<svg xmlns="http://www.w3.org/2000/svg" viewBox="0 0 100 100" width="100" height="100">
  <title>Phylanx</title>
  <defs>
    <radialGradient id="fcoreGlow" cx="50%" cy="50%" r="50%">
      <stop offset="0%" stop-color="#ff8a63" stop-opacity="0.95"></stop>
      <stop offset="34%" stop-color="#ff4f2e" stop-opacity="0.7"></stop>
      <stop offset="100%" stop-color="#ff4f2e" stop-opacity="0"></stop>
    </radialGradient>
    <radialGradient id="fcore" cx="50%" cy="45%" r="60%">
      <stop offset="0%" stop-color="#fff1ea"></stop>
      <stop offset="42%" stop-color="#ff8a63"></stop>
      <stop offset="100%" stop-color="#ff4f2e"></stop>
    </radialGradient>
  </defs>
  <rect x="0" y="0" width="100" height="100" rx="22" fill="#100d0c"></rect>
  <g transform="translate(50 50) scale(0.74) translate(-50 -50)">
    <polygon points="63.69,43.32 62.63,58.52 48.94,65.20 36.31,56.68 37.37,41.48 51.06,34.80" fill="none" stroke="#f4efe6" stroke-width="0.71" opacity="0.45"></polygon>
    <polygon points="66.30,35.32 70.86,56.78 54.56,71.45 33.70,64.68 29.14,43.22 45.44,28.55" fill="none" stroke="#f4efe6" stroke-width="0.95" opacity="0.55"></polygon>
    <polygon points="65.55,25.12 79.32,51.02 63.77,75.90 34.45,74.88 20.68,48.98 36.23,24.10" fill="none" stroke="#f4efe6" stroke-width="1.15" opacity="0.62"></polygon>
    <polygon points="60.30,14.07 86.27,40.96 75.97,76.89 39.70,85.93 13.73,59.04 24.03,23.11" fill="none" stroke="#f4efe6" stroke-width="1.30" opacity="0.72"></polygon>
    <polygon points="50.00,4.00 89.84,27.00 89.84,73.00 50.00,96.00 10.16,73.00 10.16,27.00" fill="none" stroke="#f4efe6" stroke-width="1.5" opacity="0.92"></polygon>
    <circle cx="50" cy="50" r="26" fill="url(#fcoreGlow)"></circle>
    <circle cx="50" cy="50" r="9" fill="url(#fcore)"></circle>
    <circle cx="50" cy="50" r="3.2" fill="#fff3ee"></circle>
  </g>
</svg>
